<svg id="ѓЊѓCѓ_Ѓ__1" data-name="ѓЊѓCѓ„Ѓ[_1" xmlns="http://www.w3.org/2000/svg" viewBox="0 0 42.49 42.49"><defs><style>.cls-1,.cls-3{fill:#1a171b;}.cls-1{stroke:#1a171b;stroke-miterlimit:10;}.cls-2{fill:#fff;}</style></defs><path class="cls-1" d="M42,21.25A20.75,20.75,0,1,1,21.25.5,20.74,20.74,0,0,1,42,21.25Z"/><path class="cls-2" d="M32.84,24.61a1.11,1.11,0,0,1-1.11,1.11h-21a1.11,1.11,0,0,1-1.11-1.11V9.31a1.11,1.11,0,0,1,1.11-1.1h21a1.11,1.11,0,0,1,1.11,1.1Z"/><path class="cls-2" d="M33.56,33.69a.43.43,0,0,1-.44.54H9.37a.44.44,0,0,1-.45-.54l.63-3.17A.68.68,0,0,1,10.2,30H32.29a.7.7,0,0,1,.66.54Z"/><path class="cls-2" d="M27.22,25.76A1.41,1.41,0,0,0,26.05,25H16.44a1.38,1.38,0,0,0-1.16.76l-1,2.31a.5.5,0,0,0,.49.76h13a.5.5,0,0,0,.49-.76Z"/><path class="cls-3" d="M30.63,22.68a.83.83,0,0,1-.83.83H12.69a.83.83,0,0,1-.83-.83V11.25a.83.83,0,0,1,.83-.83H29.8a.83.83,0,0,1,.83.83Z"/></svg>